PathFileType  4	(X/Y/Z) C:\Users\antoi\Documents\MyRepositories\mobilecap\ResultsAnalysis
DataRate	CameraRate	NumFrames	NumMarkers	Units	OrigDataRate	OrigDataStartFrame	OrigNumFrames
100.0	100.0	4	51	mm	100.0	99	263
Frame#	Time	r_knee			r_shank_antsup			r_ankle			r_calc			r_5meta			r_toe			L_knee			L_shank_antsup			L_ankle			L_calc			L_5meta			L_toe			r_sh2			r_sh3			r_sh4			L_sh2			L_sh3			r_thigh1			r_thigh2			r_thigh3			r_thigh4			r_thigh5			L_thigh1			L_thigh2			L_thigh3			L_thigh4			r.ASIS			r.PSIS			L.ASIS			L.PSIS			C7			R_Shoulder			L_Shoulder			R_Sternum			L_Sternum			R_humerus			R_elbow_med			R_elbow_lat			R_forearm			R_wrist_radius			R_wrist_ulna			L_humerus			L_elbow_med			L_elbow_lat			L_forearm			L_wrist_radius			L_wrist_ulna			R_HJC			L_HJC			R_HJC_reg			L_HJC_reg			
		X1	Y1	Z1	X2	Y2	Z2	X3	Y3	Z3	X4	Y4	Z4	X5	Y5	Z5	X6	Y6	Z6	X7	Y7	Z7	X8	Y8	Z8	X9	Y9	Z9	X10	Y10	Z10	X11	Y11	Z11	X12	Y12	Z12	X13	Y13	Z13	X14	Y14	Z14	X15	Y15	Z15	X16	Y16	Z16	X17	Y17	Z17	X18	Y18	Z18	X19	Y19	Z19	X20	Y20	Z20	X21	Y21	Z21	X22	Y22	Z22	X23	Y23	Z23	X24	Y24	Z24	X25	Y25	Z25	X26	Y26	Z26	X27	Y27	Z27	X28	Y28	Z28	X29	Y29	Z29	X30	Y30	Z30	X31	Y31	Z31	X32	Y32	Z32	X33	Y33	Z33	X34	Y34	Z34	X35	Y35	Z35	X36	Y36	Z36	X37	Y37	Z37	X38	Y38	Z38	X39	Y39	Z39	X40	Y40	Z40	X41	Y41	Z41	X42	Y42	Z42	X43	Y43	Z43	X44	Y44	Z44	X45	Y45	Z45	X46	Y46	Z46	X47	Y47	Z47	X48	Y48	Z48	X49	Y49	Z49	X50	Y50	Z50	X51	Y51	Z51	

99	0.98000000	-807.22469	898.32901	-421.89920	-829.99799	818.98113	-407.47236	-1117.14917	594.13236	-420.33662	-1195.30196	594.94650	-469.87328	-1061.21737	447.29279	-382.20505	-1014.49834	443.23815	-436.56214	-683.12169	987.53997	-786.56954	-710.23082	876.16923	-805.65363	-928.47662	635.67321	-745.08713	-1000.04880	622.90836	-685.33833	-795.92458	515.25050	-756.83330	-846.34788	503.18229	-809.83781	-909.57829	738.21355	-397.88125	-881.35767	871.90050	-387.74125	-969.37701	796.79785	-384.44382	-777.99934	934.46441	-796.22677	-844.86330	833.75101	-783.95310	-757.37113	1211.96425	-378.35115	-736.59187	1104.06375	-396.05429	-786.08557	1065.78392	-370.53487	-868.34547	1186.78757	-374.71504	-839.95300	1072.76679	-380.84177	-760.36051	1300.38368	-760.29208	-685.58405	1185.79769	-785.63683	-857.26680	1234.00149	-746.47300	-778.24934	1125.02324	-782.46613	-742.33173	1406.10081	-419.43224	-927.07653	1487.60090	-471.41326	-771.01235	1437.56759	-674.32645	-940.37678	1496.99942	-577.73963	-875.82434	1984.72970	-507.04487	-837.08755	1973.47047	-364.38390	-817.10577	1981.10417	-637.43114	-727.40151	1907.85041	-470.25308	-727.15463	1906.78120	-529.72581	-706.57167	1836.34779	-189.18907	-640.11820	1720.46404	-210.72710	-645.38060	1782.41006	-141.25791	-546.15819	1881.35804	-219.61614	-477.10679	1939.77759	-288.69212	-459.74342	1930.48153	-247.95341	-733.60571	1898.70293	-860.59878	-673.48211	1780.50256	-902.05197	-688.46805	1854.86750	-932.06125	-546.98913	1945.35415	-883.70830	-480.56946	1993.29645	-832.27181	-461.43556	1978.76312	-861.36518	-839.40175	1344.84172	-424.98706	-859.76081	1370.47393	-653.01754	-831.14594	1354.27815	-449.87242	-852.23554	1369.17720	-618.46563	
100	0.99000000	-785.98335	905.41067	-420.28759	-809.13397	826.89346	-405.55589	-1096.15439	602.40848	-420.94728	-1173.53739	600.98150	-472.15786	-1039.65393	457.71762	-376.74462	-991.79415	452.18699	-430.39642	-671.23220	991.73386	-786.80178	-696.23232	879.65966	-806.61729	-908.31938	632.91574	-747.05106	-979.31484	619.36028	-687.51387	-774.44414	513.58218	-759.21112	-824.62005	500.95682	-811.81435	-889.03080	746.56798	-396.45435	-860.72130	880.45542	-388.08974	-949.44152	805.77588	-385.20525	-765.41465	936.08483	-796.40062	-829.59955	833.70239	-784.83112	-743.53161	1218.45349	-376.79480	-720.59047	1111.10784	-393.57063	-769.57327	1071.95866	-369.03928	-854.23914	1191.05839	-376.07501	-823.34319	1078.02010	-380.94673	-748.25463	1304.93697	-759.71784	-673.56957	1190.50266	-785.18822	-845.38185	1238.84922	-747.13761	-766.35591	1129.76331	-782.83153	-731.37301	1411.14543	-419.62250	-916.66356	1491.17146	-471.87251	-759.48222	1442.91284	-674.56621	-929.52784	1501.00947	-578.11992	-864.69659	1990.24529	-507.24853	-825.96731	1977.65040	-363.41840	-805.43978	1985.04608	-638.17361	-716.67033	1912.91327	-470.14462	-716.52530	1911.78573	-529.69691	-701.22649	1839.19732	-185.81235	-638.06277	1720.57117	-204.36802	-642.65388	1784.12927	-135.59274	-542.46003	1880.48098	-214.77265	-472.68854	1937.36594	-284.87778	-455.59426	1928.55645	-243.85250	-726.72861	1900.83444	-861.79753	-671.01824	1781.46677	-905.04016	-685.37799	1856.24915	-934.71492	-542.85962	1944.70800	-887.78451	-475.77226	1992.04626	-836.50880	-456.89428	1977.37654	-865.62198	-827.92947	1349.08436	-425.58750	-847.82917	1375.17444	-653.60644	-819.72790	1358.23028	-450.81524	-840.14567	1373.84808	-619.44226	
101	1.00000000	-765.34666	911.60421	-418.83377	-788.52058	833.80772	-403.71546	-1073.68584	607.64512	-421.63350	-1150.30033	603.80034	-474.13285	-1016.10286	465.22138	-372.36154	-967.02524	459.05762	-425.11792	-659.64848	994.85128	-787.00063	-682.61691	882.07287	-807.39671	-887.97105	629.00947	-749.20333	-958.45287	614.96357	-689.62029	-752.80434	510.72119	-761.36382	-802.93651	497.52680	-813.71231	-868.19356	753.27653	-394.92426	-840.84445	887.42049	-388.49010	-928.71608	811.59166	-386.35182	-753.34347	936.49980	-796.49463	-814.54178	832.43135	-785.61785	-730.37164	1224.39444	-374.88190	-705.50378	1117.68217	-391.06750	-753.85857	1077.79122	-367.49275	-840.59617	1194.91427	-376.82228	-807.47066	1082.85766	-380.86774	-735.66824	1308.60859	-758.97191	-661.27080	1194.08845	-784.45703	-833.27901	1242.97195	-748.12549	-754.32430	1133.61054	-783.35810	-720.48833	1415.40966	-419.72013	-906.16909	1493.61477	-472.48693	-748.05117	1447.22438	-674.75853	-918.84179	1503.80286	-578.17064	-853.22317	1995.01558	-507.35761	-814.26270	1980.65226	-362.73317	-793.59262	1988.72795	-639.32300	-705.95998	1916.91727	-469.97619	-705.59243	1915.92940	-529.45947	-695.61331	1840.95330	-182.24571	-636.09159	1719.88979	-198.37440	-639.88098	1785.08075	-129.71038	-538.37956	1878.71539	-209.50097	-467.61943	1933.88689	-280.43892	-450.86064	1925.51740	-239.13524	-719.70160	1901.82334	-863.07652	-668.65331	1781.61521	-907.74227	-682.22424	1856.89499	-937.38656	-538.51672	1942.81969	-891.94253	-470.83150	1989.23898	-841.11854	-451.93089	1974.62343	-869.98813	-816.32890	1352.38433	-426.02681	-835.89623	1378.73804	-654.04451	-808.02746	1361.22620	-451.46264	-828.24846	1377.48332	-620.08068	
102	1.01000000	-745.50874	916.72811	-417.82983	-768.11585	839.55035	-401.94099	-1049.87070	609.67907	-422.19844	-1125.70645	603.33744	-475.89061	-990.54570	469.67584	-369.02700	-940.46436	463.29417	-420.89079	-648.49513	996.87693	-786.97925	-669.36912	883.47233	-807.87581	-867.35164	624.11553	-751.37649	-937.37447	609.49765	-691.55414	-730.93273	506.83293	-763.36047	-781.19420	492.88704	-815.55305	-846.72491	757.88192	-393.47642	-821.48225	892.50321	-388.69983	-907.50084	814.57980	-387.28613	-741.72832	935.85597	-796.59277	-799.75764	829.94945	-786.40879	-718.13204	1229.77384	-372.94431	-691.02392	1123.73489	-388.76447	-738.88594	1082.81518	-366.02271	-827.56450	1198.28593	-376.99893	-792.26425	1086.86886	-380.72491	-722.74496	1311.42665	-758.15981	-648.84388	1196.58048	-783.52898	-821.00785	1246.30759	-749.26648	-742.18175	1136.68289	-784.14875	-709.70248	1419.01793	-419.82077	-895.83683	1495.30194	-472.87983	-736.60637	1450.55704	-675.02759	-908.24230	1505.52125	-578.20896	-841.60792	1998.99821	-507.46990	-802.12133	1982.46014	-362.42991	-781.63697	1991.48348	-640.41984	-695.25831	1919.76957	-469.85593	-694.45870	1919.06150	-528.89240	-689.84672	1841.77392	-178.24675	-633.91144	1718.70536	-191.87109	-637.04839	1785.36569	-123.80940	-533.89790	1876.25341	-203.89687	-461.90004	1929.50546	-275.39317	-445.51526	1921.46415	-233.85402	-712.66160	1901.87126	-864.51886	-666.22978	1781.14764	-910.42692	-679.08321	1856.72700	-940.03570	-534.01350	1939.99546	-896.15110	-465.65666	1985.23289	-845.87841	-446.65041	1970.61910	-874.52692	-804.70159	1354.96081	-426.29426	-824.01872	1381.29740	-654.33515	-796.47976	1363.73546	-451.98504	-816.34779	1380.10123	-620.67583	
